<svg xmlns="http://www.w3.org/2000/svg" width="750.852" height="663.872" viewBox="0 0 750.852 663.872">
  <g id="SVG" transform="translate(-60.5 0)">
    <g id="body" transform="translate(288.844 0)">
      <g id="Group_3" data-name="Group 3" transform="translate(0 37.869)">
        <g id="head" transform="translate(89.202)">
          <circle id="Ellipse_1" data-name="Ellipse 1" cx="73.536" cy="73.536" r="73.536" fill="#a0616a"/>
          <path id="Path_1" data-name="Path 1" d="M581.722,260.562S595.577,365,574.262,376.728s126.823,12.789,126.823,12.789-33.038-90.588-18.118-118.3Z" transform="translate(-563.084 -147.303)" fill="#a0616a"/>
        </g>
        <path id="Path_2" data-name="Path 2" d="M809.257,390.314l-12.32,56.375-26.05,119.272-.78,6.532-8.99,75.619-5.98,50.235-4.01,33.745c-24.38,12.591-42.05,21.284-42.05,21.284s-1.52-7.657-3.97-17.455c-17.11,5.155-48.77,13.707-75.6,15.415,9.77,10.943,14.26,21.224,8.17,28.811-18.38,22.872-94.26-25.042-120.8-42.909a72.542,72.542,0,0,0-.7,12.923l-20.31-15.7,2.01-36.116,3.39-61.108,4.26-76.634a80.73,80.73,0,0,1-3.37-10.079c-6.22-22.229-13.77-66.615-19.56-103.837-4.66-29.956-8.16-55.27-8.9-60.656-.1-.7-.15-1.065-.15-1.065l112.43-49.924c7.99,18.621,45.3,24.218,45.3,24.218,30.91-2.14,55.14-18.52,55.14-18.52Z" transform="translate(-473.547 -160.473)" fill="#d0cde1"/>
      </g>
      <path id="Path_4" data-name="Path 4" d="M575.433,154.235l-13.749-5.5s28.749-31.651,68.747-28.9l-11.25-12.385s27.5-11.009,52.5,17.89c13.141,15.191,28.346,33.048,37.825,53.163h14.725l-6.146,13.532,21.509,13.532-22.077-2.431a75.616,75.616,0,0,1,.6,22.445,29.041,29.041,0,0,1-10.634,19h0s-17.052-35.3-17.052-40.8v13.761s-13.749-12.385-13.749-20.642l-7.5,9.633-3.75-15.137-46.248,15.137,7.5-12.385-28.749,4.128,11.25-15.137s-32.5,17.89-33.749,33.027-10.762,29.481-10.762,29.481S539.184,174.877,575.433,154.235Z" transform="translate(-479.614 -105.389)" fill="#2f2e41"/>
    </g>
    <g id="righthand" transform="translate(394.692 268.642)">
      <path id="Path_3" data-name="Path 3" d="M717.607,730.025s-4.76,1.63-12.5,3.94c-17.11,5.13-48.77,13.64-75.6,15.34-23.1,1.48-42.62-2.08-46.19-17.15-1.53-6.48.64-11.81,5.37-16.19,14.12-13.09,51-17.78,80.25-19.39,8.26-.45,15.9-.66,22.26-.74,10.8-.14,17.88.08,17.88.08l.17.66Z" transform="translate(-582.832 -390.045)" fill="#a0616a"/>
      <path id="Path_5" data-name="Path 5" d="M889.187,647.955c-7.49,8.12-26.05,20.35-48.55,33.59-8.37,4.92-17.28,9.99-26.37,15.03-21.69,12.03-44.4,23.95-63.14,33.58-24.38,12.53-42.05,21.18-42.05,21.18s-1.52-7.62-3.97-17.37c-3.28-13.05-8.22-29.92-13.37-37.39-.18-.26-.36-.5-.54-.74-1.5-1.97-3.01-3.12-4.5-3.12l74.42-46.13,32.16-19.94-23.17-55.31-29.06-69.38,17.54-55.81,17.63-56.1h33.04s10.94,23.88,24.93,57.18c2.09,4.98,4.25,10.17,6.45,15.53C869.417,532.755,905.3,630.5,889.187,647.955Z" transform="translate(-577.527 -390.045)" fill="#d0cde1"/>
    </g>
    <g id="lefthand" transform="translate(198.355 265.382)">
      <path id="Path_6" data-name="Path 6" d="M637.677,777.975c-18.38,22.76-94.26-24.92-120.8-42.7-5.78-3.87-9.22-6.32-9.22-6.32l24.28-32.38,7.69-10.25s6.88,3.65,17.05,9.59c.37.22.74.44,1.12.66,8.77,5.15,19.78,11.88,30.89,19.39,15.33,10.37,30.83,22.2,40.82,33.34C639.277,760.195,643.767,770.425,637.677,777.975Z" transform="translate(-412.244 -393.785)" fill="#a0616a"/>
      <path id="Path_7" data-name="Path 7" d="M556.677,695.915a47.791,47.791,0,0,0-8.1.66c-22.99,3.95-29.77,24.76-31.7,38.7a71.847,71.847,0,0,0-.7,12.86l-20.31-15.62-7.4-5.69c-17.81-6.21-33.68-17.24-47.44-30.25a238.48,238.48,0,0,1-31.95-37.89,334.145,334.145,0,0,1-24.72-42.4c-4.061-8.316-3.789-15.444,0-23.888l24.72-58.612,36.76-81.92c.27-1.95,7.6-11.266,7.92-13.129,7.29-41.8,19.79-52.951,19.79-52.951h14.92l9.98,60.36,12.4,74.99-8.69,28.34-20.08,65.45,19.19,20.84Z" transform="translate(-381.412 -385.785)" fill="#d0cde1"/>
    </g>
    <g id="laptop" transform="translate(60.5 384.312)">
      <g id="Group_2" data-name="Group 2" transform="translate(139.24)">
        <path id="Path_9" data-name="Path 9" d="M864.337,765.775v6.07a13.338,13.338,0,0,1-.91,4.87,13.693,13.693,0,0,1-.97,2,13.438,13.438,0,0,1-11.55,6.56H404.357a13.437,13.437,0,0,1-11.55-6.56,13.685,13.685,0,0,1-.97-2,13.339,13.339,0,0,1-.91-4.87v-6.07a13.426,13.426,0,0,1,13.43-13.43H430.1v-2.83a.559.559,0,0,1,.56-.56h13.43a.559.559,0,0,1,.56.56v2.83h8.39v-2.83a.559.559,0,0,1,.56-.56h13.43a.559.559,0,0,1,.56.56v2.83h8.4v-2.83a.559.559,0,0,1,.56-.56h13.43a.559.559,0,0,1,.56.56v2.83h8.39v-2.83a.559.559,0,0,1,.56-.56h13.43a.559.559,0,0,1,.56.56v2.83h8.39v-2.83a.559.559,0,0,1,.56-.56h13.43a.559.559,0,0,1,.56.56v2.83h8.4v-2.83a.559.559,0,0,1,.56-.56h13.43a.559.559,0,0,1,.56.56v2.83h8.39v-2.83a.559.559,0,0,1,.56-.56h105.2a.559.559,0,0,1,.56.56v2.83h8.4v-2.83a.559.559,0,0,1,.56-.56h13.43a.566.566,0,0,1,.56.56v2.83h8.39v-2.83a.559.559,0,0,1,.56-.56h13.43a.559.559,0,0,1,.56.56v2.83h8.39v-2.83a.559.559,0,0,1,.56-.56h13.43a.559.559,0,0,1,.56.56v2.83h8.4v-2.83a.559.559,0,0,1,.56-.56H765.3a.557.557,0,0,1,.55.56v2.83h8.4v-2.83a.559.559,0,0,1,.56-.56h13.43a.559.559,0,0,1,.56.56v2.83h8.39v-2.83a.559.559,0,0,1,.56-.56h13.43a.559.559,0,0,1,.56.56v2.83h39.17a13.426,13.426,0,0,1,13.43,13.43Z" transform="translate(-390.927 -505.715)" fill="#3f3d56"/>
        <g id="Group_1" data-name="Group 1" transform="translate(24.95)">
          <path id="Path_10" data-name="Path 10" d="M828.381,510.145H661.938v-3.431H586.466v3.431H419.337A11.259,11.259,0,0,0,408.079,521.4V749.315a11.259,11.259,0,0,0,11.259,11.259H828.381a11.259,11.259,0,0,0,11.259-11.259V521.4a11.259,11.259,0,0,0-11.259-11.259Z" transform="translate(-408.079 -506.715)" fill="#3f3d56"/>
          <circle id="Ellipse_2" data-name="Ellipse 2" cx="25" cy="25" r="25" transform="translate(192.923 109.126)" fill="#d3cfcc" stroke="#d0cde1" stroke-miterlimit="10" stroke-width="2"/>
        </g>
      </g>
      <rect id="Rectangle_2" data-name="Rectangle 2" width="750.852" height="2" transform="translate(0 271)" fill="#3f3d56"/>
    </g>
  </g>
</svg>
