<svg id="top-left-bubble" xmlns="http://www.w3.org/2000/svg" xmlns:xlink="http://www.w3.org/1999/xlink" width="911" height="549" viewBox="0 0 911 549">
  <defs>
    <linearGradient id="linear-gradient-top-left-svg" x1="0.5" x2="0.5" y2="1" gradientUnits="objectBoundingBox">
      <stop offset="0" stop-color="#b1ceb4"/>
      <stop offset="1" stop-color="#91b1df"/>
    </linearGradient>
  </defs>
  <path id="top-left-svg" d="M855.403 1H366.49H139.883H49.6797C-15.0327 1 -8.32029 63 29.6797 89C67.6797 115 163.68 135 130.57 227C102.115 257.044 105.737 321.119 130.57 352.199C155.404 383.278 199.898 378.616 219.04 372.401C254.221 352.199 354.475 308.677 388 341C388 341 418 372.401 408 405.034C400.294 430.182 371.463 450.099 366.49 473C358.73 508.741 391.324 548 440.991 548C490.659 548 593.68 450.099 743.652 450.099C788.663 450.099 805.736 474.963 866.268 470.301C914.694 466.572 910.245 425.236 901.967 405.034C901.967 380.17 810 253 787.111 199.909C764.222 146.818 775.68 115 823.68 115C836.097 118.108 875.891 127.183 901.967 84.9148C928.042 42.6466 881.789 11.3598 855.403 1Z" opacity="0.2" fill="url(#linear-gradient-top-left-svg)"/>
</svg>
